<?xml version="1.0" encoding="iso-8859-1"?>
<!-- Generator: Adobe Illustrator 19.0.0, SVG Export Plug-In . SVG Version: 6.00 Build 0)  -->
<svg version="1.1" id="Capa_1" xmlns="http://www.w3.org/2000/svg" xmlns:xlink="http://www.w3.org/1999/xlink" x="0px" y="0px"
	 viewBox="0 0 512 512" style="enable-background:new 0 0 512 512;" xml:space="preserve">
<path style="fill:#57555C;" d="M416.25,462c11.05,0,20,8.95,20,20c0,11.04-8.96,20-20,20h-320c-11.05,0-20-8.95-20-20
	c0-11.04,8.96-20,20-20H416.25z"/>
<path style="fill:#EDECFF;" d="M436.25,190c0,46.06-17.39,88.13-45.95,120H122.2c-28.56-31.87-45.95-73.94-45.95-120
	c0-99.25,80.75-180,180-180S436.25,90.75,436.25,190z"/>
<path style="fill:#CA80DC;" d="M396.25,350l20,112h-320l20-112H396.25z"/>
<path style="fill:#57555C;" d="M396.25,310c11.05,0,20,8.95,20,20c0,11.04-8.96,20-20,20h-280c-11.05,0-20-8.95-20-20
	c0-11.04,8.96-20,20-20C129.403,310,380.812,310,396.25,310z"/>
<g>
	<polygon style="fill:#FEA832;" points="376.82,228.36 350.16,241.69 336.82,268.36 323.49,241.69 296.82,228.36 323.49,215.03 
		336.82,188.36 350.16,215.03 	"/>
	<polygon style="fill:#FEA832;" points="256.75,169.29 211.75,184.29 196.75,229.29 181.75,184.29 136.75,169.29 181.75,154.29 
		196.75,109.29 211.75,154.29 	"/>
</g>
<path d="M336,140c5.52,0,10-4.48,10-10s-4.48-10-10-10s-10,4.48-10,10C326,135.52,330.48,140,336,140z"/>
<path d="M336,429c5.52,0,10-4.48,10-10s-4.48-10-10-10s-10,4.48-10,10S330.48,429,336,429z"/>
<path d="M296,180c5.52,0,10-4.48,10-10s-4.48-10-10-10s-10,4.48-10,10S290.48,180,296,180z"/>
<path d="M256,100c5.52,0,10-4.48,10-10s-4.48-10-10-10s-10,4.48-10,10S250.48,100,256,100z"/>
<path d="M216,260c-5.52,0-10,4.48-10,10s4.48,10,10,10s10-4.48,10-10S221.52,260,216,260z"/>
<path d="M156,240c-5.52,0-10,4.48-10,10s4.48,10,10,10s10-4.48,10-10S161.52,240,156,240z"/>
<path d="M286.57,228.36c0,3.788,2.141,7.251,5.529,8.945l23.687,11.839l11.839,23.687c1.693,3.388,5.155,5.529,8.943,5.529h0.001
	c3.787,0,7.25-2.14,8.943-5.526l11.85-23.689l23.679-11.84c3.388-1.694,5.528-5.157,5.528-8.944s-2.14-7.25-5.528-8.944
	l-23.679-11.84l-11.85-23.689c-1.694-3.388-5.157-5.527-8.945-5.526c-3.788,0-7.25,2.141-8.943,5.529l-11.839,23.687l-23.687,11.839
	C288.71,221.108,286.57,224.572,286.57,228.36z M327.711,223.975c1.937-0.968,3.506-2.538,4.474-4.474l4.388-8.78l4.394,8.783
	c0.967,1.935,2.537,3.503,4.471,4.471l8.771,4.386l-8.771,4.386c-1.935,0.967-3.504,2.536-4.471,4.471l-4.394,8.783l-4.388-8.78
	c-0.968-1.937-2.538-3.506-4.474-4.474l-8.773-4.385L327.711,223.975z"/>
<path d="M133.338,178.777l40.256,13.419l13.419,40.256c1.361,4.083,5.183,6.838,9.487,6.838s8.125-2.754,9.487-6.838l13.419-40.256
	l40.256-13.419c4.083-1.361,6.838-5.183,6.838-9.487s-2.754-8.125-6.838-9.487l-40.256-13.419l-13.419-40.256
	c-1.361-4.083-5.183-6.838-9.487-6.838s-8.125,2.754-9.487,6.838l-13.419,40.256l-40.256,13.419
	c-4.083,1.361-6.838,5.183-6.838,9.487S129.254,177.416,133.338,178.777z M184.662,163.777c2.986-0.995,5.33-3.338,6.325-6.325
	l5.513-16.54l5.513,16.54c0.995,2.986,3.338,5.33,6.325,6.325l16.54,5.513l-16.54,5.513c-2.986,0.995-5.33,3.338-6.325,6.325
	l-5.513,16.54l-5.513-16.54c-0.995-2.986-3.338-5.33-6.325-6.325l-16.54-5.513L184.662,163.777z"/>
<path d="M256,0C151.234,0,66,85.234,66,190c0,40.816,13.114,80.263,37.229,112.84C93.146,307.592,86,317.881,86,330
	c0,12.458,7.634,23.163,18.468,27.692l-17.063,95.555C75.232,456.871,66,468.209,66,482c0,16.542,13.458,30,30,30h320
	c16.576,0,30-13.425,30-30c0-13.554-9.038-25.032-21.402-28.738l-17.063-95.553C418.173,353.277,426,342.698,426,330
	c0-11.981-7.063-22.34-17.241-27.144C432.882,270.276,446,230.823,446,190C446,85.234,360.766,0,256,0z M256,20
	c93.738,0,170,76.262,170,170c0,40.381-14.352,79.266-40.499,110H126.499C100.352,269.266,86,230.381,86,190
	C86,96.262,162.262,20,256,20z M396,320c5.514,0,10,4.486,10,10c0,5.521-4.478,10-10,10H116c-5.514,0-10-4.486-10-10
	c0-5.521,4.478-10,10-10H396z M387.628,360l16.429,92H107.944l16.429-92H387.628z M416,492H96c-5.514,0-10-4.486-10-10
	c0-5.513,4.468-9.994,9.99-10c0.007,0,0.015,0.001,0.022,0.001c0.011,0,0.022-0.001,0.033-0.001h319.911
	c0.011,0,0.022,0.001,0.033,0.001c0.007,0,0.015-0.001,0.022-0.001c5.51,0.005,9.99,4.489,9.99,10C426,487.521,421.522,492,416,492z
	"/>
<path d="M176,429h120c5.523,0,10-4.477,10-10s-4.477-10-10-10H176c-5.523,0-10,4.477-10,10S170.477,429,176,429z"/>
<g>
</g>
<g>
</g>
<g>
</g>
<g>
</g>
<g>
</g>
<g>
</g>
<g>
</g>
<g>
</g>
<g>
</g>
<g>
</g>
<g>
</g>
<g>
</g>
<g>
</g>
<g>
</g>
<g>
</g>
</svg>
