<?xml version="1.0"?>
<svg xmlns="http://www.w3.org/2000/svg" viewBox="0 0 192 192" width="512" height="512"><g id="_05-card" data-name="05-card"><g id="Glyph"><path d="M144,144V16A16,16,0,0,0,128,0H32A16,16,0,0,0,16,16V144a16,16,0,0,0,16,16h96A16,16,0,0,0,144,144Zm-35.982-40.458a27.306,27.306,0,0,1-14.456,3.9A34.306,34.306,0,0,1,88,106.97L96,128H64l8-21.031c-7.318,1.206-14.353.074-20.018-3.427C44.255,98.767,40,90.406,40,80c0-12.81,9.956-21.181,18.74-28.567,5.6-4.708,11.387-9.575,14.1-15.011a8,8,0,0,1,14.31,0c2.718,5.436,8.507,10.3,14.105,15.011C110.044,58.819,120,67.19,120,80,120,90.406,115.745,98.767,108.018,103.542Z"/><path d="M160,32h-8V144a24,24,0,0,1-24,24H48v8a16,16,0,0,0,16,16h96a16,16,0,0,0,16-16V48A16,16,0,0,0,160,32Z"/></g></g></svg>
