<svg height="512" viewBox="0 0 128 128" width="512" xmlns="http://www.w3.org/2000/svg"><g><g><path d="m10.308 63.003h97.878v11.5h-97.878z" fill="#47568c" transform="matrix(.707 -.707 .707 .707 -31.262 62.031)"/><path d="m77.81 40.532h7.816v11.5h-7.816z" fill="#d5e8fe" transform="matrix(.707 -.707 .707 .707 -8.792 71.339)"/><path d="m1.919 107.02h26.622v11.5h-26.622z" fill="#ff7b4a" transform="matrix(.707 -.707 .707 .707 -75.28 43.799)"/><g fill="#ffda2d"><path d="m103.011 14.742 5.123-12.99 5.124 12.99 12.99 5.123-12.99 5.124-5.124 12.99-5.123-12.99-12.99-5.124z"/><path d="m92.795 63.629 5.123-12.99 5.124 12.99 12.99 5.124-12.99 5.123-5.124 12.991-5.123-12.991-12.991-5.123z"/></g></g><g><path d="m84.258 54.349 5.526-5.527 9.369-9.369a1.749 1.749 0 0 0 0-2.475l-8.132-8.132a1.8 1.8 0 0 0 -2.474 0l-69.208 69.209-18.824 18.824a1.749 1.749 0 0 0 0 2.475l8.131 8.132a1.752 1.752 0 0 0 2.475 0l18.824-18.825 11.373-11.373a1.75 1.75 0 1 0 -2.474-2.475l-10.136 10.136-5.657-5.657 51.838-51.838 5.657 5.657-22.536 22.536a1.75 1.75 0 0 0 2.474 2.475l23.771-23.771zm-58.025 53.075-16.349 16.349-5.657-5.656 16.349-16.35zm63.553-74.867 5.657 5.656-6.9 6.9-5.653-5.66zm-12.423 12.423 3.052-3.052 5.657 5.657-3.052 3.051z"/><path d="m49.953 83.7-3.053 3.056a1.75 1.75 0 1 0 2.475 2.475l3.053-3.053a1.75 1.75 0 0 0 -2.475-2.478z"/><path d="m126.89 18.238-12.283-4.845-4.844-12.284a1.751 1.751 0 0 0 -3.256 0l-4.845 12.284-12.284 4.845a1.75 1.75 0 0 0 1.284 3.256l12.99-5.124a1.753 1.753 0 0 0 .987-.986l3.5-8.863 3.495 8.863a1.751 1.751 0 0 0 .986.986l8.862 3.5-8.862 3.5a1.748 1.748 0 0 0 -.986.986l-3.495 8.863-3.5-8.863a1.75 1.75 0 1 0 -3.256 1.284l5.124 12.991a1.75 1.75 0 0 0 3.256 0l4.844-12.284 12.283-4.844a1.75 1.75 0 0 0 0-3.256z"/><path d="m116.675 67.125-12.284-4.845-4.845-12.28a1.75 1.75 0 0 0 -3.256 0l-4.845 12.28-12.282 4.845a1.75 1.75 0 0 0 0 3.256l12.282 4.844 4.845 12.284a1.75 1.75 0 0 0 3.256 0l4.845-12.284 12.283-4.844a1.75 1.75 0 0 0 0-3.256zm-14.275 5.123a1.751 1.751 0 0 0 -.986.986l-3.5 8.863-3.5-8.863a1.75 1.75 0 0 0 -.987-.986l-8.862-3.5 8.862-3.5a1.744 1.744 0 0 0 .987-.986l3.5-8.863 3.5 8.863a1.745 1.745 0 0 0 .986.986l8.863 3.5z"/></g></g></svg>